<?xml version="1.0" encoding="UTF-8"?>
<svg width="54px" height="54px" viewBox="0 0 54 54" version="1.1" xmlns="http://www.w3.org/2000/svg" xmlns:xlink="http://www.w3.org/1999/xlink">
    <title>logo-mobile</title>
    <g id="Page-1" stroke="none" stroke-width="1" fill="none" fill-rule="evenodd">
        <g id="logo-mobile">
            <rect id="Rectangle-6" stroke="#E5261F" stroke-width="4" fill-rule="nonzero" x="2" y="2" width="50" height="50"></rect>
            <!--path id="." fill="#E5261F" d="M34.402,41.895 C33.9259976,41.3769974 33.688,40.7400038 33.688,39.984 C33.688,39.2279962 33.9329975,38.5840027 34.423,38.052 C34.9130025,37.5199973 35.4939966,37.254 36.166,37.254 C36.8660035,37.254 37.4469977,37.5199973 37.909,38.052 C38.3710023,38.5840027 38.602,39.2279962 38.602,39.984 C38.602,40.7400038 38.3570024,41.3769974 37.867,41.895 C37.3769975,42.4130026 36.7960034,42.672 36.124,42.672 C35.4519966,42.672 34.8780024,42.4130026 34.402,41.895 Z"></path-->
            <path id="S" fill="#068599" fill-rule="nonzero" d="M 49.98 14.24 L 48.18 14.24 L 48.18 0.24 L 50.84 0.24 L 54.72 9.1 L 58.54 0.24 L 61.26 0.24 L 61.26 14.24 L 59.36 14.24 L 59.36 2.66 L 55.62 11.08 L 53.74 11.08 L 49.98 2.66 L 49.98 14.24 Z M 12.9 14.24 L 11.1 14.24 L 11.1 0.24 L 13.62 0.24 L 19.8 11.88 L 19.8 0.24 L 21.6 0.24 L 21.6 14.24 L 19.12 14.24 L 12.9 2.68 L 12.9 14.24 Z M 8.4 14.24 L 0 14.24 L 0 0.24 L 8.4 0.24 L 8.4 1.88 L 1.9 1.88 L 1.9 6.14 L 7.5 6.14 L 7.5 7.74 L 1.9 7.74 L 1.9 12.6 L 8.4 12.6 L 8.4 14.24 Z M 33.6 14.24 L 25.2 14.24 L 25.2 0.24 L 33.6 0.24 L 33.6 1.88 L 27.1 1.88 L 27.1 6.14 L 32.7 6.14 L 32.7 7.74 L 27.1 7.74 L 27.1 12.6 L 33.6 12.6 L 33.6 14.24 Z M 45.28 0.72 L 44.7 2.32 Q 44.08 2.02 43.43 1.84 A 4.603 4.603 0 0 0 42.817 1.717 Q 42.501 1.674 42.143 1.664 A 8.141 8.141 0 0 0 41.9 1.66 A 4.235 4.235 0 0 0 40.319 1.951 A 3.996 3.996 0 0 0 39.61 2.32 Q 38.6 2.98 38.02 4.22 Q 37.44 5.46 37.44 7.22 A 8.373 8.373 0 0 0 37.563 8.691 A 6.186 6.186 0 0 0 38.01 10.16 A 5.135 5.135 0 0 0 38.727 11.326 A 4.285 4.285 0 0 0 39.59 12.12 A 3.941 3.941 0 0 0 41.819 12.819 A 4.779 4.779 0 0 0 41.9 12.82 A 6.743 6.743 0 0 0 42.694 12.776 Q 43.189 12.717 43.6 12.58 Q 44.32 12.34 45 11.96 L 45.58 13.54 A 7.512 7.512 0 0 1 44.681 13.949 A 9.579 9.579 0 0 1 43.89 14.21 A 6.718 6.718 0 0 1 42.897 14.408 Q 42.33 14.48 41.68 14.48 A 6.477 6.477 0 0 1 39.815 14.22 A 5.592 5.592 0 0 1 38.46 13.61 A 5.72 5.72 0 0 1 36.485 11.521 A 6.983 6.983 0 0 1 36.28 11.13 Q 35.511 9.543 35.5 7.363 A 12.563 12.563 0 0 1 35.5 7.3 Q 35.5 5.16 36.29 3.51 A 6.327 6.327 0 0 1 37.686 1.584 A 5.972 5.972 0 0 1 38.53 0.93 A 5.874 5.874 0 0 1 41.066 0.048 A 7.458 7.458 0 0 1 41.92 0 A 9.128 9.128 0 0 1 42.932 0.054 A 7.04 7.04 0 0 1 43.74 0.19 A 7.645 7.645 0 0 1 45.235 0.699 A 7.125 7.125 0 0 1 45.28 0.72 Z M 73.18 14.24 L 64.86 14.24 L 64.86 0.24 L 66.76 0.24 L 66.76 12.54 L 73.18 12.54 L 73.18 14.24 Z"></path>
        </g>
    </g>
</svg>